<svg xmlns="http://www.w3.org/2000/svg" width="159.619" height="221.5" viewBox="0 0 159.619 221.5"><g transform="translate(-788 -308)"><g transform="translate(944.62 737.5) rotate(180)" fill="none"><path d="M76.81,348c-10.774,0-21.226-3.45-31.065-10.255a79.226,79.226,0,0,1-13.557-12.032,106.773,106.773,0,0,1-11.812-15.935,138.46,138.46,0,0,1-9.745-19.314A169.25,169.25,0,0,1,3.272,268.3,203.012,203.012,0,0,1-3,217.5c0-3.16.07-6.356.208-9.5h159.2c.139,3.15.208,6.346.208,9.5a203.006,203.006,0,0,1-6.272,50.8,169.235,169.235,0,0,1-7.359,22.168,138.454,138.454,0,0,1-9.746,19.314,106.772,106.772,0,0,1-11.812,15.935,79.225,79.225,0,0,1-13.557,12.032C98.036,344.55,87.584,348,76.81,348Z" stroke="none"/><path d="M 76.80959320068359 339.9999389648438 C 85.92703247070313 339.9999389648438 94.84792327880859 337.0273742675781 103.3247604370117 331.1647033691406 C 107.5491714477539 328.2432556152344 111.6459274291992 324.6025390625 115.5012054443359 320.3436889648438 C 119.3935928344727 316.0439147949219 123.0668411254883 311.0846252441406 126.4188690185547 305.6036071777344 C 129.8126525878906 300.0542602539063 132.900146484375 293.9327087402344 135.5955657958984 287.408935546875 C 138.3373413085938 280.7730102539063 140.6949005126953 273.6685485839844 142.6027526855469 266.2928161621094 C 146.5953674316406 250.8579711914063 148.6197814941406 234.4414672851563 148.6197814941406 217.499267578125 C 148.6197814941406 217.0004577636719 148.6179809570313 216.5005493164063 148.6143646240234 215.9999389648438 L 5.005719661712646 215.9999389648438 C 5.002100467681885 216.5003356933594 5.000285625457764 217.0003356933594 5.000285625457764 217.499267578125 C 5.000285625457764 234.44140625 7.024646759033203 250.8579711914063 11.01717472076416 266.2928466796875 C 12.92503547668457 273.6685791015625 15.28256320953369 280.7730712890625 18.02423095703125 287.4089660644531 C 20.71981430053711 293.93310546875 23.80725860595703 300.0546569824219 27.20078659057617 305.6036071777344 C 30.55275726318359 311.0845947265625 34.2259521484375 316.0439147949219 38.11833953857422 320.34375 C 41.97364807128906 324.6026306152344 46.07034301757813 328.2433471679688 50.29481506347656 331.1648864746094 C 58.77131271362305 337.0274047851563 67.69217681884766 339.9999389648438 76.80959320068359 339.9999389648438 M 76.80959320068359 347.9999389648438 C 66.035400390625 347.9999389648438 55.58348083496094 344.5495910644531 45.74420166015625 337.7445373535156 C 41.0152587890625 334.47412109375 36.45412063598633 330.4259033203125 32.18745422363281 325.7126159667969 C 27.96139717102051 321.0441589355469 23.98736953735352 315.6827697753906 20.37589645385742 309.7774658203125 C 16.76436996459961 303.8720397949219 13.48553562164307 297.3739624023438 10.63047981262207 290.4638366699219 C 7.748007774353027 283.4871520996094 5.272285938262939 276.0289001464844 3.272091150283813 268.2962646484375 C -0.8895754218101501 252.2074432373047 -2.999714374542236 235.1168518066406 -2.999714374542236 217.499267578125 C -2.999714374542236 214.3389739990234 -2.929630994796753 211.1429443359375 -2.791380882263184 207.9999389648438 L 156.4115295410156 207.9999389648438 C 156.5500640869141 211.1500549316406 156.6197814941406 214.3455810546875 156.6197814941406 217.499267578125 C 156.6197814941406 235.1169738769531 154.5095977783203 252.20751953125 150.3478393554688 268.2962646484375 C 148.3476257324219 276.029052734375 145.8718414306641 283.4872741699219 142.9893188476563 290.4638366699219 C 140.1342620849609 297.3739624023438 136.8553619384766 303.8719482421875 133.2437591552734 309.7774658203125 C 129.6322021484375 315.6828308105469 125.6581726074219 321.0441589355469 121.4320373535156 325.7126159667969 C 117.1653671264648 330.4259033203125 112.6041717529297 334.4740905761719 107.8751220703125 337.7445373535156 C 98.03575897216797 344.5495910644531 87.58381652832031 347.9999389648438 76.80959320068359 347.9999389648438 Z" stroke="none" fill="#000"/></g><g transform="translate(824 308)" fill="none" stroke="#000" stroke-width="8"><ellipse cx="43.5" cy="43" rx="43.5" ry="43" stroke="none"/><ellipse cx="43.5" cy="43" rx="39.5" ry="39" fill="none"/></g></g></svg>