<svg xmlns="http://www.w3.org/2000/svg" width="159.619" height="221.5" viewBox="0 0 159.619 221.5"><g transform="translate(-788 -308)"><g transform="translate(944.62 737.5) rotate(180)" fill="none"><path d="M76.81,348c-10.774,0-21.226-3.45-31.065-10.255a79.226,79.226,0,0,1-13.557-12.032,106.773,106.773,0,0,1-11.812-15.935,138.46,138.46,0,0,1-9.745-19.314A169.25,169.25,0,0,1,3.272,268.3,203.012,203.012,0,0,1-3,217.5c0-3.16.07-6.356.208-9.5h159.2c.139,3.15.208,6.346.208,9.5a203.006,203.006,0,0,1-6.272,50.8,169.235,169.235,0,0,1-7.359,22.168,138.454,138.454,0,0,1-9.746,19.314,106.772,106.772,0,0,1-11.812,15.935,79.225,79.225,0,0,1-13.557,12.032C98.036,344.55,87.584,348,76.81,348Z" stroke="none"/><path d="M 76.80959320068359 340.9999389648438 C 86.13411712646484 340.9999389648438 95.24642181396484 337.9676513671875 103.8935394287109 331.9871826171875 C 108.181037902832 329.0221252441406 112.3358154296875 325.3305053710938 116.242561340332 321.0148010253906 C 120.1766738891602 316.6689453125 123.8875045776367 311.659423828125 127.2719802856445 306.1253662109375 C 130.6930084228516 300.5314636230469 133.8044281005859 294.3628234863281 136.5197906494141 287.7908020019531 C 139.2791442871094 281.1123046875 141.6514739990234 273.9635925292969 143.5708923339844 266.5432434082031 C 147.5846405029297 251.0266571044922 149.6197814941406 234.52587890625 149.6197814941406 217.499267578125 C 149.6197814941406 216.6685791015625 149.6147918701172 215.8349304199219 149.6048126220703 214.9999389648438 L 4.015277862548828 214.9999389648438 C 4.005297183990479 215.8344421386719 4.000285625457764 216.6681518554688 4.000285625457764 217.499267578125 C 4.000285625457764 234.5258483886719 6.035368919372559 251.0266265869141 10.04903602600098 266.5432739257813 C 11.96845245361328 273.9635925292969 14.34075832366943 281.1123352050781 17.10003662109375 287.7908020019531 C 19.81553649902344 294.3632202148438 22.9268970489502 300.5318603515625 26.34767532348633 306.1253662109375 C 29.73206329345703 311.6593627929688 33.44286727905273 316.6689147949219 37.37697982788086 321.0148620605469 C 41.28372955322266 325.33056640625 45.43848037719727 329.022216796875 49.72597885131836 331.9873657226563 C 58.37284088134766 337.9676513671875 67.48506164550781 340.9999389648438 76.80959320068359 340.9999389648438 M 76.80959320068359 347.9999389648438 C 66.035400390625 347.9999389648438 55.58348083496094 344.5495910644531 45.74420166015625 337.7445373535156 C 41.0152587890625 334.47412109375 36.45412063598633 330.4259033203125 32.18745422363281 325.7126159667969 C 27.96139717102051 321.0441589355469 23.98736953735352 315.6827697753906 20.37589645385742 309.7774658203125 C 16.76436996459961 303.8720397949219 13.48553562164307 297.3739624023438 10.63047981262207 290.4638366699219 C 7.748007774353027 283.4871520996094 5.272285938262939 276.0289001464844 3.272091150283813 268.2962646484375 C -0.8895754218101501 252.2074432373047 -2.999714374542236 235.1168518066406 -2.999714374542236 217.499267578125 C -2.999714374542236 214.3389739990234 -2.929630994796753 211.1429443359375 -2.791380882263184 207.9999389648438 L 156.4115295410156 207.9999389648438 C 156.5500640869141 211.1500549316406 156.6197814941406 214.3455810546875 156.6197814941406 217.499267578125 C 156.6197814941406 235.1169738769531 154.5095977783203 252.20751953125 150.3478393554688 268.2962646484375 C 148.3476257324219 276.029052734375 145.8718414306641 283.4872741699219 142.9893188476563 290.4638366699219 C 140.1342620849609 297.3739624023438 136.8553619384766 303.8719482421875 133.2437591552734 309.7774658203125 C 129.6322021484375 315.6828308105469 125.6581726074219 321.0441589355469 121.4320373535156 325.7126159667969 C 117.1653671264648 330.4259033203125 112.6041717529297 334.4740905761719 107.8751220703125 337.7445373535156 C 98.03575897216797 344.5495910644531 87.58381652832031 347.9999389648438 76.80959320068359 347.9999389648438 Z" stroke="none" fill="#000"/></g><g transform="translate(824 308)" fill="none" stroke="#000" stroke-width="7"><ellipse cx="43.5" cy="43" rx="43.5" ry="43" stroke="none"/><ellipse cx="43.5" cy="43" rx="40" ry="39.5" fill="none"/></g></g></svg>