<svg xmlns="http://www.w3.org/2000/svg" width="159.619" height="221.5" viewBox="0 0 159.619 221.5"><defs><style>.a,.b,.e{fill:none;}.b{stroke:#000;stroke-width:5px;}.c,.d{stroke:none;}.d{fill:#000;}</style></defs><g transform="translate(-788 -308)"><g class="a" transform="translate(944.62 737.5) rotate(180)"><path class="c" d="M76.81,348c-10.774,0-21.226-3.45-31.065-10.255a79.226,79.226,0,0,1-13.557-12.032,106.773,106.773,0,0,1-11.812-15.935,138.46,138.46,0,0,1-9.745-19.314A169.25,169.25,0,0,1,3.272,268.3,203.012,203.012,0,0,1-3,217.5c0-3.16.07-6.356.208-9.5h159.2c.139,3.15.208,6.346.208,9.5a203.006,203.006,0,0,1-6.272,50.8,169.235,169.235,0,0,1-7.359,22.168,138.454,138.454,0,0,1-9.746,19.314,106.772,106.772,0,0,1-11.812,15.935,79.225,79.225,0,0,1-13.557,12.032C98.036,344.55,87.584,348,76.81,348Z"/><path class="d" d="M 76.80958557128906 342.9999389648438 C 86.54833221435547 342.9999389648438 96.04338836669922 339.8481750488281 105.031135559082 333.6321716308594 C 109.4447860717773 330.5798034667969 113.7156829833984 326.7863464355469 117.7252578735352 322.3570251464844 C 121.7428894042969 317.9189147949219 125.528938293457 312.8088684082031 128.9782104492188 307.1687927246094 C 132.4536895751953 301.4859008789063 135.6129302978516 295.22314453125 138.3682098388672 288.5545349121094 C 141.1628112792969 281.7908020019531 143.5646820068359 274.5536499023438 145.5071563720703 267.0440979003906 C 149.5632171630859 251.3641357421875 151.6197814941406 234.6948394775391 151.6197814941406 217.499267578125 C 151.6197814941406 216.0042724609375 151.6037445068359 214.5010986328125 151.5718688964844 212.9999389648438 L 2.048224210739136 212.9999389648438 C 2.016335725784302 214.5012664794922 2.000285625457764 216.0042114257813 2.000285625457764 217.499267578125 C 2.000285625457764 234.6946563720703 4.056810855865479 251.3639678955078 8.112760543823242 267.0441284179688 C 10.05528545379639 274.5537414550781 12.4571361541748 281.7908935546875 15.25158596038818 288.5545349121094 C 18.00698661804199 295.2234497070313 21.16618537902832 301.4862060546875 24.64143562316895 307.1687927246094 C 28.09081077575684 312.8090209960938 31.87681007385254 317.9190979003906 35.89426040649414 322.3570556640625 C 39.90391159057617 326.7864379882813 44.17478561401367 330.5799255371094 48.58833694458008 333.6322631835938 C 57.57588577270508 339.8481750488281 67.07086181640625 342.9999389648438 76.80958557128906 342.9999389648438 M 76.80958557128906 347.9999389648438 C 66.03538513183594 347.9999389648438 55.5834846496582 344.549560546875 45.74420928955078 337.7445373535156 C 41.01526260375977 334.47412109375 36.45413589477539 330.4259033203125 32.18746185302734 325.7126159667969 C 27.96138572692871 321.0441589355469 23.98738479614258 315.6827697753906 20.37588500976563 309.7774658203125 C 16.76436042785645 303.8720397949219 13.48553562164307 297.3739624023438 10.63048553466797 290.4638366699219 C 7.748010635375977 283.4871520996094 5.272285938262939 276.0289001464844 3.272085666656494 268.2962646484375 C -0.8895642757415771 252.2074432373047 -2.999714374542236 235.1168670654297 -2.999714374542236 217.499267578125 C -2.999714374542236 214.3389892578125 -2.929639339447021 211.1429443359375 -2.791389226913452 207.9999389648438 L 156.4115295410156 207.9999389648438 C 156.5500640869141 211.1500701904297 156.6197814941406 214.3455963134766 156.6197814941406 217.499267578125 C 156.6197814941406 235.1169586181641 154.5096130371094 252.2075347900391 150.3478393554688 268.2962646484375 C 148.3476104736328 276.029052734375 145.8718414306641 283.4872741699219 142.9893035888672 290.4638366699219 C 140.1342620849609 297.3739624023438 136.8553924560547 303.8719482421875 133.2437591552734 309.7774658203125 C 129.6322174072266 315.6828308105469 125.6581573486328 321.0441589355469 121.4320373535156 325.7126159667969 C 117.1653594970703 330.4259033203125 112.6041641235352 334.4740905761719 107.8751373291016 337.7445373535156 C 98.03575897216797 344.549560546875 87.58380889892578 347.9999389648438 76.80958557128906 347.9999389648438 Z"/></g><g class="b" transform="translate(824 308)"><ellipse class="c" cx="43.5" cy="43" rx="43.5" ry="43"/><ellipse class="e" cx="43.5" cy="43" rx="41" ry="40.5"/></g></g></svg>