<svg xmlns="http://www.w3.org/2000/svg" width="160" height="220.5" viewBox="0 0 160 220.5"><g transform="translate(-575 -308)"><g transform="translate(575 308)"><g transform="translate(-575 -308)"><g transform="translate(602 308)" fill="none" stroke="#000" stroke-width="4"><circle cx="47" cy="47" r="47" stroke="none"/><circle cx="47" cy="47" r="45" fill="none"/></g><g transform="translate(575 355)" fill="#fff" stroke-linecap="square" stroke-linejoin="round"><path d="M 145.5 159.5 L 2.5 159.5 L 2.5 2.5 L 145.5 2.5 L 145.5 159.5 Z" stroke="none"/><path d="M 5 5 L 5 157 L 143 157 L 143 5 L 5 5 M 0 0 L 148 0 L 148 162 L 0 162 L 0 0 Z" stroke="none" fill="#000"/></g></g><g transform="translate(-489 -192)"><g transform="translate(589 308)" fill="none" stroke="#000" stroke-width="4"><circle cx="23.5" cy="23.5" r="23.5" stroke="none"/><circle cx="23.5" cy="23.5" r="21.5" fill="none"/></g><g transform="translate(575 331.5)" fill="#fff" stroke-linecap="square" stroke-linejoin="round"><path d="M 71.5 78.5 L 2.5 78.5 L 2.5 2.5 L 71.5 2.5 L 71.5 78.5 Z" stroke="none"/><path d="M 5 5 L 5 76 L 69 76 L 69 5 L 5 5 M 0 0 L 74 0 L 74 81 L 0 81 L 0 0 Z" stroke="none" fill="#000"/></g></g></g></g></svg>