<svg xmlns="http://www.w3.org/2000/svg" width="148" height="220.5" viewBox="0 0 148 220.5"><g transform="translate(-1001 -309)"><g transform="translate(1001 350)" fill="none" stroke-linecap="square" stroke-linejoin="round"><path d="M0,0H148V179.5H0Z" stroke="none"/><path d="M 8 8 L 8 171.5 L 140 171.5 L 140 8 L 8 8 M 0 0 L 148 0 L 148 179.5 L 0 179.5 L 0 0 Z" stroke="none" fill="#000"/></g><g transform="translate(1028 309)" fill="none"><path d="M94,47H0A47.012,47.012,0,0,1,90.306,28.705,46.706,46.706,0,0,1,94,47Z" stroke="none"/><path d="M 85.18260192871094 39 C 84.6717529296875 36.54663848876953 83.92263031005859 34.14858627319336 82.93843078613281 31.82169914245605 C 80.97455596923828 27.17853927612305 78.16139221191406 23.00691986083984 74.57711029052734 19.42270088195801 C 70.99279022216797 15.83845996856689 66.82111358642578 13.02536010742188 62.17783355712891 11.06149959564209 C 57.37489318847656 9.03003978729248 52.26817321777344 8 46.99955368041992 8 C 41.73115158081055 8 36.6246337890625 9.03003978729248 31.82173156738281 11.06151962280273 C 27.17869186401367 13.02532005310059 23.0070915222168 15.83841991424561 19.42283248901367 19.42266082763672 C 15.83855247497559 23.00691986083984 13.02541255950928 27.17856025695801 11.06155204772949 31.82168006896973 C 10.07742023468018 34.14844512939453 9.328232765197754 36.54682922363281 8.817389488220215 39 L 85.18260192871094 39 M 94.00001525878906 47 L 1.237060587300221e-05 47 C -7.62939453125e-06 40.65383911132813 1.243012428283691 34.49893951416016 3.693512439727783 28.70528030395508 C 6.060712337493896 23.10856056213379 9.449592590332031 18.08218002319336 13.76597213745117 13.76580047607422 C 18.08237266540527 9.449440002441406 23.10871315002441 6.060599803924561 28.70537185668945 3.693459987640381 C 34.49967193603516 1.242640018463135 40.65473175048828 -3.552713678800501e-15 46.99955368041992 -3.552713678800501e-15 C 53.34457397460938 -3.552713678800501e-15 59.49981307983398 1.242640018463135 65.29423522949219 3.693459987640381 C 70.89102935791016 6.060599803924561 75.91747283935547 9.449440002441406 80.23390960693359 13.76580047607422 C 84.55035400390625 18.08216094970703 87.93925476074219 23.10853958129883 90.30647277832031 28.70528030395508 C 92.75717163085938 34.49932098388672 93.99985504150391 40.65422058105469 94.00001525878906 46.99900054931641 L 94.00001525878906 47 Z" stroke="none" fill="#000"/></g></g></svg>